<svg width="22" height="21" viewBox="0 0 22 21" fill="none" xmlns="http://www.w3.org/2000/svg">
<g id="gravity-ui:bell-dot">
<g id="Group">
<path id="Vector" fill-rule="evenodd" clip-rule="evenodd" d="M10.757 3.28779C9.92284 3.2878 9.11441 3.57678 8.46922 4.10557C7.82403 4.63436 7.38193 5.37031 7.2181 6.18826L6.41154 10.2223C6.17133 11.4268 5.57962 12.5332 4.71113 13.4017L4.45835 13.6531C4.36482 13.7462 4.29797 13.8626 4.26475 13.9903C4.23154 14.118 4.23319 14.2522 4.26952 14.3791C4.30585 14.5059 4.37554 14.6206 4.47132 14.7114C4.5671 14.8021 4.68546 14.8655 4.81407 14.8949L5.88383 15.1425C9.09033 15.884 12.4238 15.884 15.6303 15.1425L16.6987 14.8949C16.8272 14.8653 16.9454 14.8018 17.041 14.7111C17.1367 14.6205 17.2064 14.5058 17.2428 14.3791C17.2792 14.2524 17.2811 14.1183 17.2482 13.9906C17.2153 13.863 17.1488 13.7465 17.0557 13.6531L16.803 13.4017C15.9345 12.5332 15.3428 11.4268 15.1025 10.2223L15.0139 9.78323C14.963 9.52906 15.0151 9.26505 15.1587 9.04928C15.3024 8.83351 15.5259 8.68366 15.7801 8.63269C16.0343 8.58171 16.2983 8.6338 16.5141 8.77748C16.7298 8.92116 16.8797 9.14468 16.9306 9.39885L17.0193 9.83926C17.1834 10.6654 17.59 11.4237 18.1854 12.0192L18.4382 12.272C18.7784 12.6118 19.0213 13.0365 19.1417 13.502C19.2622 13.9674 19.2558 14.4567 19.1232 14.9188C18.9906 15.381 18.7367 15.7992 18.3878 16.13C18.0388 16.4608 17.6077 16.6921 17.1391 16.7999L16.0694 17.0475C15.1547 17.2559 14.2339 17.4114 13.307 17.5139C13.1831 18.0982 12.8623 18.6222 12.3982 18.9982C11.9341 19.3742 11.355 19.5794 10.7577 19.5794C10.1604 19.5794 9.58127 19.3742 9.11719 18.9982C8.65311 18.6222 8.33227 18.0982 8.20838 17.5139C7.27909 17.4132 6.35666 17.257 5.44602 17.0461L4.37496 16.7986C3.90691 16.6903 3.47635 16.4588 3.12791 16.128C2.77947 15.7973 2.52584 15.3793 2.39332 14.9176C2.26079 14.4558 2.2542 13.967 2.37421 13.5018C2.49423 13.0366 2.73648 12.612 3.07587 12.272L3.32995 12.0179C3.92542 11.4224 4.33196 10.6628 4.49614 9.83796L5.304 5.80388C5.45572 5.04587 5.76374 4.3278 6.20841 3.69545C6.65308 3.06311 7.22464 2.53037 7.88666 2.1312C8.54867 1.73203 9.28659 1.4752 10.0534 1.37708C10.8202 1.27896 11.599 1.3417 12.3402 1.56131C12.4632 1.59785 12.5778 1.65825 12.6775 1.73909C12.7772 1.81992 12.86 1.9196 12.9212 2.03242C12.9823 2.14525 13.0207 2.26902 13.034 2.39667C13.0473 2.52431 13.0354 2.65333 12.9989 2.77636C12.9623 2.89939 12.9019 3.01402 12.8211 3.1137C12.7402 3.21339 12.6406 3.29617 12.5277 3.35734C12.4149 3.4185 12.2911 3.45684 12.1635 3.47017C12.0359 3.4835 11.9068 3.47156 11.7838 3.43503C11.4503 3.3373 11.1046 3.28772 10.757 3.28779Z" fill="#373737"/>
<path id="Vector_2" fill-rule="evenodd" clip-rule="evenodd" d="M16.6219 7.19684C17.313 7.19684 17.9759 6.92228 18.4646 6.43356C18.9533 5.94484 19.2279 5.282 19.2279 4.59084C19.2279 3.89969 18.9533 3.23685 18.4646 2.74813C17.9759 2.25941 17.313 1.98485 16.6219 1.98485C15.9307 1.98485 15.2679 2.25941 14.7791 2.74813C14.2904 3.23685 14.0159 3.89969 14.0159 4.59084C14.0159 5.282 14.2904 5.94484 14.7791 6.43356C15.2679 6.92228 15.9307 7.19684 16.6219 7.19684Z" fill="#373737"/>
</g>
</g>
</svg>
