<svg width="23" height="21" viewBox="0 0 23 21" fill="none" xmlns="http://www.w3.org/2000/svg">
<path id="Vector" d="M20.125 2.625H17.0931L15.6023 0.389375C15.5225 0.269666 15.4143 0.171503 15.2874 0.103584C15.1606 0.0356652 15.0189 8.64116e-05 14.875 0H7.875C7.73109 8.64116e-05 7.58943 0.0356652 7.46256 0.103584C7.33569 0.171503 7.22752 0.269666 7.14766 0.389375L5.65578 2.625H2.625C1.92881 2.625 1.26113 2.90156 0.768845 3.39384C0.276562 3.88613 0 4.55381 0 5.25V17.5C0 18.1962 0.276562 18.8639 0.768845 19.3562C1.26113 19.8484 1.92881 20.125 2.625 20.125H20.125C20.8212 20.125 21.4889 19.8484 21.9812 19.3562C22.4734 18.8639 22.75 18.1962 22.75 17.5V5.25C22.75 4.55381 22.4734 3.88613 21.9812 3.39384C21.4889 2.90156 20.8212 2.625 20.125 2.625ZM21 17.5C21 17.7321 20.9078 17.9546 20.7437 18.1187C20.5796 18.2828 20.3571 18.375 20.125 18.375H2.625C2.39294 18.375 2.17038 18.2828 2.00628 18.1187C1.84219 17.9546 1.75 17.7321 1.75 17.5V5.25C1.75 5.01794 1.84219 4.79538 2.00628 4.63128C2.17038 4.46719 2.39294 4.375 2.625 4.375H6.125C6.26909 4.37509 6.41098 4.3396 6.53805 4.27167C6.66513 4.20375 6.77347 4.10549 6.85344 3.98563L8.34312 1.75H14.4058L15.8966 3.98563C15.9765 4.10549 16.0849 4.20375 16.2119 4.27167C16.339 4.3396 16.4809 4.37509 16.625 4.375H20.125C20.3571 4.375 20.5796 4.46719 20.7437 4.63128C20.9078 4.79538 21 5.01794 21 5.25V17.5ZM11.375 6.125C10.4232 6.125 9.49273 6.40725 8.70132 6.93605C7.90991 7.46486 7.29308 8.21647 6.92883 9.09584C6.56458 9.97521 6.46928 10.9428 6.65497 11.8764C6.84066 12.8099 7.29901 13.6674 7.97205 14.3405C8.64509 15.0135 9.50259 15.4718 10.4361 15.6575C11.3697 15.8432 12.3373 15.7479 13.2167 15.3837C14.096 15.0194 14.8476 14.4026 15.3764 13.6112C15.9053 12.8198 16.1875 11.8893 16.1875 10.9375C16.1861 9.66159 15.6786 8.43835 14.7764 7.53615C13.8741 6.63394 12.6509 6.12645 11.375 6.125ZM11.375 14C10.7693 14 10.1772 13.8204 9.67357 13.4839C9.16994 13.1474 8.77741 12.6691 8.54562 12.1095C8.31383 11.5499 8.25318 10.9341 8.37134 10.34C8.48951 9.74597 8.78119 9.20028 9.20949 8.77199C9.63778 8.34369 10.1835 8.05201 10.7775 7.93384C11.3716 7.81568 11.9874 7.87633 12.547 8.10812C13.1066 8.33991 13.5849 8.73244 13.9214 9.23607C14.2579 9.73969 14.4375 10.3318 14.4375 10.9375C14.4375 11.7497 14.1148 12.5287 13.5405 13.103C12.9662 13.6773 12.1872 14 11.375 14Z" fill="black"/>
</svg>
