<svg width="37" height="37" viewBox="0 0 37 37" fill="none" xmlns="http://www.w3.org/2000/svg">
<path d="M8.09375 17.3438H31.2188C31.5254 17.3438 31.8195 17.4656 32.0363 17.6824C32.2532 17.8992 32.375 18.1933 32.375 18.5C32.375 18.8067 32.2532 19.1008 32.0363 19.3176C31.8195 19.5344 31.5254 19.6562 31.2188 19.6562H8.09375C7.78709 19.6562 7.493 19.5344 7.27616 19.3176C7.05932 19.1008 6.9375 18.8067 6.9375 18.5C6.9375 18.1933 7.05932 17.8992 7.27616 17.6824C7.493 17.4656 7.78709 17.3438 8.09375 17.3438Z" fill="white"/>
<path d="M8.57244 18.5L18.1624 28.0876C18.3795 28.3047 18.5015 28.5992 18.5015 28.9063C18.5015 29.2133 18.3795 29.5078 18.1624 29.7249C17.9453 29.942 17.6508 30.064 17.3437 30.064C17.0367 30.064 16.7422 29.942 16.5251 29.7249L6.11887 19.3186C6.0112 19.2112 5.92577 19.0836 5.86748 18.9432C5.80919 18.8027 5.77918 18.6521 5.77918 18.5C5.77918 18.3479 5.80919 18.1973 5.86748 18.0569C5.92577 17.9164 6.0112 17.7888 6.11887 17.6814L16.5251 7.27513C16.7422 7.05802 17.0367 6.93604 17.3437 6.93604C17.6508 6.93604 17.9453 7.05802 18.1624 7.27513C18.3795 7.49224 18.5015 7.78671 18.5015 8.09375C18.5015 8.4008 18.3795 8.69527 18.1624 8.91238L8.57244 18.5Z" fill="white"/>
</svg>
