<svg width="36" height="35" viewBox="0 0 36 35" fill="none" xmlns="http://www.w3.org/2000/svg">
<g id="fluent:food-16-filled">
<path id="Vector" d="M15.2066 2.30563C15.3513 2.37738 15.4784 2.48031 15.5786 2.60702C15.6788 2.73372 15.7497 2.88106 15.7863 3.03844C15.8256 3.21125 16.9062 7.83563 16.9062 10.9375C16.9062 13.0156 15.9394 14.8684 14.4344 16.0694C13.8875 16.5069 13.625 16.9838 13.625 17.3819V18.445C13.625 18.496 13.6279 18.5442 13.6337 18.5894C13.7081 19.1319 13.9772 21.1466 14.2288 23.2356C14.4759 25.2853 14.7188 27.5209 14.7188 28.4375C14.7188 29.5978 14.2578 30.7106 13.4373 31.5311C12.6169 32.3516 11.5041 32.8125 10.3438 32.8125C9.18343 32.8125 8.07063 32.3516 7.25016 31.5311C6.42969 30.7106 5.96875 29.5978 5.96875 28.4375C5.96875 27.5188 6.21156 25.2875 6.45875 23.2356C6.71031 21.1466 6.97938 19.1319 7.05375 18.5894L7.0625 18.445V17.3819C7.0625 16.9838 6.8 16.5069 6.25313 16.0694C5.48199 15.4547 4.85931 14.6741 4.43136 13.7856C4.00342 12.8972 3.78121 11.9237 3.78125 10.9375C3.78125 7.84657 4.85313 3.24625 4.90125 3.04063C4.95812 2.79747 5.0957 2.58075 5.29155 2.42581C5.4874 2.27088 5.72996 2.18688 5.97969 2.1875C6.59219 2.1875 7.08875 2.68407 7.08875 3.29657V9.85469C7.08013 10.0024 7.10187 10.1503 7.15264 10.2893C7.20341 10.4283 7.28214 10.5554 7.38395 10.6628C7.48576 10.7702 7.60849 10.8556 7.74459 10.9137C7.88068 10.9718 8.02723 11.0013 8.1752 11.0006C8.32317 10.9998 8.46942 10.9688 8.60492 10.9093C8.74041 10.8498 8.86228 10.7632 8.963 10.6548C9.06372 10.5464 9.14115 10.4185 9.19051 10.279C9.23987 10.1395 9.26012 9.99138 9.25 9.84375V3.28125C9.25 2.99117 9.36523 2.71297 9.57035 2.50786C9.77547 2.30274 10.0537 2.1875 10.3438 2.1875C10.6338 2.1875 10.912 2.30274 11.1171 2.50786C11.3223 2.71297 11.4375 2.99117 11.4375 3.28125V9.90063C11.4436 10.1878 11.5635 10.4608 11.7709 10.6596C11.9783 10.8583 12.2561 10.9666 12.5433 10.9605C12.8305 10.9544 13.1035 10.8345 13.3022 10.6271C13.501 10.4197 13.6092 10.1419 13.6031 9.85469V3.29219C13.6031 2.68188 14.0975 2.1875 14.71 2.1875C14.7581 2.1875 14.9725 2.1875 15.2066 2.30563ZM20.1875 12.0313C20.1875 9.42053 21.2246 6.91673 23.0707 5.07067C24.9167 3.22461 27.4205 2.1875 30.0312 2.1875C30.3213 2.1875 30.5995 2.30274 30.8046 2.50786C31.0098 2.71297 31.125 2.99117 31.125 3.28125V16.3472L31.1666 16.7344C31.3406 18.367 31.5075 20.0003 31.6675 21.6344C31.9366 24.3819 32.2188 27.4619 32.2188 28.4375C32.2188 29.5978 31.7578 30.7106 30.9373 31.5311C30.1169 32.3516 29.0041 32.8125 27.8438 32.8125C26.6834 32.8125 25.5706 32.3516 24.7502 31.5311C23.9297 30.7106 23.4688 29.5978 23.4688 28.4375C23.4688 27.4619 23.7509 24.3819 24.02 21.6344C24.1578 20.2409 24.2956 18.9066 24.3984 17.9178L24.4422 17.5H22.375C21.7948 17.5 21.2384 17.2695 20.8282 16.8593C20.418 16.4491 20.1875 15.8927 20.1875 15.3125V12.0313Z" fill="black"/>
</g>
</svg>
