<svg width="158" height="154" viewBox="0 0 158 154" fill="none" xmlns="http://www.w3.org/2000/svg">
<path id="Vector" d="M22.8708 0.0015092C12.8562 0.131392 4.61886 8.68657 8.27608 24.0025L22.0505 27.9195C23.3903 22.2115 28.9001 18.6499 34.1296 17.6861L34.779 3.85698C30.9509 1.20463 26.7673 -0.0497603 22.8708 0.0015092ZM52.8259 0.613325C49.3396 0.579146 45.3747 1.85063 41.1364 4.80375L40.5212 17.7989C45.5456 18.9234 49.9206 22.4405 51.9372 27.4068L63.0114 23.3565C68.07 11.1338 62.5671 0.712446 52.8259 0.613325ZM131.542 0.97563C128.226 0.941451 124.877 2.66753 125.97 6.30766C128.021 13.1915 134.071 12.0259 136.566 6.19145C138.002 2.80083 134.823 1.00981 131.508 0.979048L131.542 0.97563ZM93.1579 2.90678C88.9196 2.85893 84.8864 6.97416 88.7487 15.0577C77.0593 14.815 81.4685 31.0572 90.2526 26.5113C85.6726 40.6617 104.164 42.8833 101.703 28.1929C112.743 35.1246 117.733 24.0401 106.727 18.8516C121.151 15.7173 109.257 -1.32808 99.9597 10.6758C99.9255 5.50444 96.4733 2.9478 93.1579 2.9102V2.90678ZM96.6784 16.3086C98.8317 16.3086 100.575 18.045 100.575 20.1846C100.575 22.3277 98.8317 24.0606 96.6784 24.0606C94.5251 24.0606 92.8161 22.3277 92.8161 20.1846C92.8161 18.045 94.5251 16.3086 96.6784 16.3086ZM143.881 16.7564C137.933 16.7188 134.208 24.4434 145.966 29.0064C139.711 37.483 157.142 45.2076 154.305 30.8521C168.9 30.4078 160.184 11.4585 151.571 21.774C149.281 18.168 146.376 16.7701 143.881 16.7564ZM34.5739 24.1119C29.3444 25.5064 26.3571 30.7837 27.7243 35.9449C29.1052 41.1744 34.3689 44.2164 39.5642 42.815C44.7595 41.4478 47.8015 36.1499 46.4001 30.9546C45.238 26.5455 41.2732 23.6915 36.9323 23.7735C36.1462 23.8077 35.2575 23.9307 34.5739 24.1119ZM65.78 29.1431L53.1335 33.7574C53.031 37.7564 51.4929 41.482 48.8952 44.3531L58.5681 54.1968C73.5046 55.3931 79.8962 37.3462 65.78 29.1431ZM4.7214 29.6216C-7.65131 39.6363 6.738 65.4761 19.8288 61.0669L27.861 46.6431C23.1169 43.0542 21.2404 39.2945 21.0593 34.2701L4.7214 29.6216ZM130.243 36.731C125.116 36.7994 119.374 40.0806 114.349 47.6685L118.246 64.5191C118.759 64.4849 119.271 64.5191 119.784 64.5533C124.056 64.8609 128.158 66.7066 131.2 69.8853L144.667 60.4175C146.512 46.7798 139.608 36.9361 130.721 36.731H130.243ZM157.279 46.3355C150.101 46.5406 149.657 52.6929 154.647 56.6236C160.458 61.1353 164.867 46.1304 157.279 46.3355ZM100.78 47.5318C87.0739 47.6685 75.3845 58.5718 85.946 77.7466L101.703 77.7808C102.831 71.3892 106.898 67.9712 111.991 65.7837L107.958 48.4546C105.599 47.8052 103.138 47.4976 100.78 47.5318ZM43.6999 48.147C40.5896 49.5484 36.6931 49.8218 33.7194 49.2066L26.1521 62.8443C38.2312 77.3365 49.0319 69.2359 52.7575 57.3755L43.6999 48.147ZM145.555 67.6294L134.686 75.2515C136.327 79.3189 136.361 83.7281 134.96 87.6587L147.264 94.939C164.901 92.4097 166.234 70.5005 145.555 67.6294ZM118.588 70.8765C116.708 70.8765 114.828 71.355 113.085 72.3462C107.787 75.4224 106.009 82.0874 109.051 87.3853C112.128 92.6832 118.793 94.4947 124.091 91.4185C129.388 88.3765 131.2 81.6773 128.124 76.3794C126.21 73.064 122.894 71.1158 119.374 70.8765H118.588ZM20.9909 74.773C9.13058 74.9439 1.23507 85.6763 9.60909 102.664L27.7927 108.372C30.404 103.586 35.0525 100.1 40.5896 99.0406L39.5642 82.3609C33.3776 77.063 26.7331 74.6705 20.9909 74.773ZM59.9353 75.73C55.4577 75.7984 50.4675 78.0884 46.0241 83.3863L46.9812 98.9039C51.5271 99.6216 55.5603 102.014 58.3972 105.432L71.7956 97.8443C76.9567 85.6421 69.5739 75.5591 59.9353 75.73ZM84.8864 84.104C74.3591 103.381 93.3972 117.019 108.197 111.687L112.059 97.981C108.607 96.5796 105.531 94.0503 103.549 90.5982C102.352 88.5474 101.669 86.3941 101.361 84.1724L84.8864 84.104ZM131.781 93.1958C130.55 94.6656 129.047 95.9302 127.303 96.9556C124.467 98.5621 121.39 99.314 118.348 99.2798L114.247 113.84C125.731 126.829 145.214 114.251 143.812 100.305L131.781 93.1958ZM73.4021 104.304L61.5759 110.969C63.5241 116.37 62.5671 122.727 59.8327 127.17L70.155 138.005C93.2605 128.401 86.7321 112.405 73.4021 104.304ZM44.1101 105.056C37.3083 105.056 31.8737 110.525 31.8737 117.293C31.8737 124.094 37.3083 129.529 44.1101 129.529C50.8777 129.529 56.3122 124.094 56.3122 117.293C56.3122 110.525 50.8777 105.056 44.1101 105.056ZM7.59249 108.713C-4.95111 121.804 -0.268839 148.088 22.6316 146.14L31.4636 130.93C26.4699 126.384 24.6994 120.403 25.7419 114.421L7.59249 108.713ZM153.177 116.233C147.88 116.267 138.993 124.128 148.461 126.145C147.333 139.133 165.243 128.025 156.322 121.36C157.006 117.566 155.399 116.199 153.177 116.233ZM112.435 124.573C109.701 124.573 106.864 127 105.804 133.254C97.6355 122.761 85.9118 134.827 98.7976 142.415C82.528 150.754 99.6862 161.897 106.283 151.814C107.753 168.733 127.064 158.035 116.229 148.123C129.969 150.378 129.935 137.117 116.571 137.527C121.219 131.135 116.981 124.539 112.435 124.573ZM55.5603 131.921C49.3737 135.955 43.2556 137.117 36.8298 134.417L26.9382 151.438C34.3347 169.006 68.446 160.701 68.07 144.397L67.7624 144.705L55.5603 131.921ZM109.017 139.031C111.171 139.031 112.88 140.774 112.88 142.893C112.88 145.046 111.171 146.79 109.017 146.79C106.864 146.79 105.155 145.046 105.155 142.893C105.155 140.774 106.864 139.031 109.017 139.031ZM145.966 141.423C141.796 141.287 140.428 148.294 148.153 152.669C140.804 162.512 158.202 169.998 156.288 154.993C168.832 157.385 159.569 142.654 153.383 147.918C150.717 143.303 148.016 141.492 145.966 141.423Z" fill="#FFA500"/>
</svg>
