<svg width="24" height="25" viewBox="0 0 24 25" fill="none" xmlns="http://www.w3.org/2000/svg">
<g id="mdi:invite">
<path id="Vector" d="M19 17.5V19.5H7V17.5C7 17.5 7 13.5 13 13.5C19 13.5 19 17.5 19 17.5ZM16 8.5C16 7.90666 15.8241 7.32664 15.4944 6.83329C15.1648 6.33994 14.6962 5.95543 14.1481 5.72836C13.5999 5.5013 12.9967 5.44189 12.4147 5.55765C11.8328 5.6734 11.2982 5.95912 10.8787 6.37868C10.4591 6.79824 10.1734 7.33279 10.0576 7.91473C9.94189 8.49667 10.0013 9.09987 10.2284 9.64805C10.4554 10.1962 10.8399 10.6648 11.3333 10.9944C11.8266 11.3241 12.4067 11.5 13 11.5C13.7956 11.5 14.5587 11.1839 15.1213 10.6213C15.6839 10.0587 16 9.29565 16 8.5ZM19.2 13.56C19.7466 14.0643 20.1873 14.6724 20.4964 15.3489C20.8054 16.0254 20.9766 16.7566 21 17.5V19.5H24V17.5C24 17.5 24 14.05 19.2 13.56ZM18 5.5C17.6979 5.50002 17.3976 5.54726 17.11 5.64C17.6951 6.47897 18.0087 7.47718 18.0087 8.5C18.0087 9.52282 17.6951 10.521 17.11 11.36C17.3976 11.4527 17.6979 11.5 18 11.5C18.7956 11.5 19.5587 11.1839 20.1213 10.6213C20.6839 10.0587 21 9.29565 21 8.5C21 7.70435 20.6839 6.94129 20.1213 6.37868C19.5587 5.81607 18.7956 5.5 18 5.5ZM8 10.5H5V7.5H3V10.5H0V12.5H3V15.5H5V12.5H8V10.5Z" fill="white"/>
</g>
</svg>
