<svg width="32" height="33" viewBox="0 0 32 33" fill="none" xmlns="http://www.w3.org/2000/svg">
<g id="Profile Icon">
<path id="Vector" d="M16 31.4737C24.1392 31.4737 30.7369 24.876 30.7369 16.7368C30.7369 8.59768 24.1392 2 16 2C7.86087 2 1.26318 8.59768 1.26318 16.7368C1.26318 24.876 7.86087 31.4737 16 31.4737Z" stroke="black" stroke-width="2.52632" stroke-linecap="round" stroke-linejoin="round"/>
<path id="Vector_2" d="M16.0001 16C16.9772 16 17.9143 15.6119 18.6053 14.9209C19.2962 14.23 19.6843 13.2929 19.6843 12.3158C19.6843 11.3387 19.2962 10.4016 18.6053 9.71067C17.9143 9.01975 16.9772 8.63159 16.0001 8.63159C15.023 8.63159 14.0859 9.01975 13.395 9.71067C12.7041 10.4016 12.3159 11.3387 12.3159 12.3158C12.3159 13.2929 12.7041 14.23 13.395 14.9209C14.0859 15.6119 15.023 16 16.0001 16Z" stroke="black" stroke-width="2.52632" stroke-linejoin="round"/>
<path id="Vector_3" d="M5.70044 27.2973C5.95391 23.4576 9.14886 20.4211 13.0527 20.4211H18.9474C22.846 20.4211 26.038 23.4495 26.2989 27.2818" stroke="black" stroke-width="2.52632" stroke-linecap="round" stroke-linejoin="round"/>
</g>
</svg>
