<svg width="21" height="21" viewBox="0 0 21 21" fill="none" xmlns="http://www.w3.org/2000/svg">
<path d="M19.05 20.625L11.9625 13.5375C11.4 13.9875 10.7531 14.3438 10.0219 14.6062C9.29063 14.8687 8.5125 15 7.6875 15C5.64375 15 3.91425 14.292 2.499 12.876C1.08375 11.46 0.375751 9.7305 0.375001 7.6875C0.374251 5.6445 1.08225 3.915 2.499 2.499C3.91575 1.083 5.64525 0.375 7.6875 0.375C9.72975 0.375 11.4596 1.083 12.8771 2.499C14.2946 3.915 15.0023 5.6445 15 7.6875C15 8.5125 14.8688 9.29062 14.6063 10.0219C14.3438 10.7531 13.9875 11.4 13.5375 11.9625L20.625 19.05L19.05 20.625ZM7.6875 12.75C9.09375 12.75 10.2893 12.258 11.274 11.274C12.2588 10.29 12.7508 9.0945 12.75 7.6875C12.7493 6.2805 12.2573 5.08538 11.274 4.10213C10.2908 3.11888 9.09525 2.6265 7.6875 2.625C6.27975 2.6235 5.08463 3.11588 4.10213 4.10213C3.11963 5.08838 2.62725 6.2835 2.625 7.6875C2.62275 9.0915 3.11513 10.287 4.10213 11.274C5.08913 12.261 6.28425 12.753 7.6875 12.75Z" fill="black"/>
</svg>
